<svg xmlns="http://www.w3.org/2000/svg" width="600" height="600" viewBox="0 0 600 600"><title>assets/icon</title><path d="M215.759 147.427h10.937c36.672.004 73.344-.116 110.015.056 22.782-.078 43.291 13.773 51.696 34.914 8.401 21.526 2.672 48.593-13.484 63.747-8.918 8.365-19.698 11.222-31.669 11.19-38.793-.102-77.586-.032-116.38-.028H216.34c-.21 3.666-.517 6.573-.52 9.48-.032 37.217-.104 74.435-.002 111.652.176 64.431 47.389 111.62 111.917 111.94 17.275.085 34.553-.159 51.825.08 30.112.231 54.41 24.651 54.441 54.715S409.784 599.707 379.673 600c-31.742-.372-63.882.573-95.12-4.011-85.895-12.605-160.869-88.296-174.735-173.739a317 317 0 0 1-3.737-45.993c-.532-36-.17-72.012-.17-108.02v-11.192c-23.38 2.007-44.31-1.518-59.26-20.902a53.2 53.2 0 0 1-11.606-35.414c.65-17.78 8.622-31.675 22.561-42.55 14.101-11.002 30.768-11.076 48.314-10.95 0-23.374-.149-45.985.039-68.594.082-29.888 24.143-54.195 54.076-54.63 29.934-.434 54.692 23.165 55.644 53.038.42 22.966.08 45.947.08 70.384M565 155.087v6.115c-.018 12.19-7.139 20.46-17.897 20.788-10.801.329-18.646-7.518-19.067-19.642-.947-27.266-8.61-52.229-25.179-74.108-24.238-32.009-56.691-48.665-96.603-51.13-1.807-.112-3.626-.055-5.427-.214-10.16-.378-18.115-8.88-17.819-19.045A18.234 18.234 0 0 1 401.99.016a158.5 158.5 0 0 1 99.79 34.473c39.75 31.297 60.161 72.789 63.22 120.598"/><path d="M491.995 160.848c.218 13.07-6.571 21.59-17.628 22.126-11.111.538-18.707-7.343-19.565-20.298-1.952-29.51-23.07-50.52-52.756-52.487-12.488-.827-20.2-8.101-20.044-18.908.161-11.155 8.677-18.397 21.497-18.28 46.636.426 87.719 41.208 88.496 87.847"/></svg>